<svg viewBox="0 0 1000 1000" xmlns="http://www.w3.org/2000/svg">
<polygon  points="0,0 600,0 600,200 700,200 700,600 300,600 300,700 0,700" fill="none" stroke="red" transform=/>
<polygon  points="-50,-50 650,-50 650,150 750,150 750,750   -50,750" fill="none" stroke="red" stroke-linejoin="round"  transform=/>
<line x1="100" y1="0" x2="100" y2="700" stroke="black"   transform= />
<line x1="200" y1="0" x2="200" y2="700" stroke="black"   transform= />
<line x1="300" y1="0" x2="300" y2="700" stroke="black"   transform= />
<line x1="400" y1="0" x2="400" y2="600" stroke="black"   transform= />
<line x1="500" y1="0" x2="500" y2="600" stroke="black"   transform= />
<line x1="600" y1="200" x2="600" y2="600" stroke="black"   transform= />
<line x1="0" y1="100" x2="600" y2="100" stroke="black"   transform= />
<line x1="0" y1="200" x2="600" y2="200" stroke="black"   transform= />
<line x1="0" y1="300" x2="700" y2="300" stroke="black"   transform= />
<line x1="0" y1="400" x2="700" y2="400" stroke="black"   transform= />
<line x1="0" y1="500" x2="700" y2="500" stroke="black"   transform= />
<line x1="0" y1="600" x2="300" y2="600" stroke="black"   transform= />
<text x="11" y="60" font-family="Verdana" font-size="40">JAN</text><text x="111" y="60" font-family="Verdana" font-size="40">FEV</text><text x="204" y="60" font-family="Verdana" font-size="40">MAR</text><text x="311" y="60" font-family="Verdana" font-size="40">AVR</text><text x="410" y="60" font-family="Verdana" font-size="40">MAI</text><text x="513" y="60" font-family="Verdana" font-size="40">JUI</text><text x="13" y="160" font-family="Verdana" font-size="40">JUI</text><text x="109" y="160" font-family="Verdana" font-size="40">AOU</text><text x="209" y="160" font-family="Verdana" font-size="40">SEP</text><text x="310" y="160" font-family="Verdana" font-size="40">OCT</text><text x="407" y="160" font-family="Verdana" font-size="40">NOV</text><text x="510" y="160" font-family="Verdana" font-size="40">DEC</text><text x="13" y="260" font-family="Verdana" font-size="40">1</text><text x="109" y="260" font-family="Verdana" font-size="40">2</text><text x="209" y="260" font-family="Verdana" font-size="40">3</text><text x="310" y="260" font-family="Verdana" font-size="40">4</text><text x="407" y="260" font-family="Verdana" font-size="40">5</text><text x="510" y="260" font-family="Verdana" font-size="40">6</text><text x="610" y="260" font-family="Verdana" font-size="40">7</text><text x="13" y="360" font-family="Verdana" font-size="40">8</text><text x="109" y="360" font-family="Verdana" font-size="40">9</text><text x="209" y="360" font-family="Verdana" font-size="40">10</text><text x="310" y="360" font-family="Verdana" font-size="40">11</text><text x="407" y="360" font-family="Verdana" font-size="40">12</text><text x="510" y="360" font-family="Verdana" font-size="40">13</text><text x="610" y="360" font-family="Verdana" font-size="40">14</text><text x="13" y="460" font-family="Verdana" font-size="40">15</text><text x="109" y="460" font-family="Verdana" font-size="40">16</text><text x="209" y="460" font-family="Verdana" font-size="40">17</text><text x="310" y="460" font-family="Verdana" font-size="40">18</text><text x="407" y="460" font-family="Verdana" font-size="40">19</text><text x="510" y="460" font-family="Verdana" font-size="40">20</text><text x="610" y="460" font-family="Verdana" font-size="40">21</text><text x="13" y="560" font-family="Verdana" font-size="40">22</text><text x="109" y="560" font-family="Verdana" font-size="40">23</text><text x="209" y="560" font-family="Verdana" font-size="40">24</text><text x="310" y="560" font-family="Verdana" font-size="40">25</text><text x="407" y="560" font-family="Verdana" font-size="40">26</text><text x="510" y="560" font-family="Verdana" font-size="40">27</text><text x="610" y="560" font-family="Verdana" font-size="40">28</text><text x="13" y="660" font-family="Verdana" font-size="40">29</text><text x="109" y="660" font-family="Verdana" font-size="40">30</text><text x="209" y="660" font-family="Verdana" font-size="40">31</text></svg>
